<?xml version="1.0" encoding="utf-8"?>
<!-- Generator: Adobe Illustrator 27.8.1, SVG Export Plug-In . SVG Version: 6.00 Build 0)  -->
<svg version="1.1" id="Layer_1" xmlns="http://www.w3.org/2000/svg" xmlns:xlink="http://www.w3.org/1999/xlink" x="0px" y="0px"
	 viewBox="0 0 150 150" style="enable-background:new 0 0 150 150;" xml:space="preserve">
<style type="text/css">
	.st0{fill:#FFFFFF;}
	.st1{fill:#6D70B4;}
</style>
<path class="st0" d="M130.8,39.6c-2.4,0-4.5,1-5.9,3c-2.9,4.1-31.2,44.1-36.8,49.8c-1.2,1.3-2.6,2.3-4.5,2.3c-2.4,0-4.5-1.7-5.2-3.5
	c0,0-1.7-3.9-0.1-10.4l1.9-7.9c2.5-9.6,0.9-15.7,0.3-17.4c-2.4-8.7-10.2-15-19.6-15c-5.7,0-10.9,2.4-14.5,6.1l-0.1,0.1
	c-2,2-13.7,16.9-13.7,16.9l-19,24.5c-1,1.3-1.8,3-1.8,4.9c0,4.1,3.3,7.4,7.4,7.4c2.1,0,4.1-0.7,5.7-2.7l6.9-9.1L44.7,72
	c6.6-8.2,9.8-13.1,11.4-14.5c0,0,0.3-0.3,0.6-0.5c1.1-0.9,2.3-1.7,4-1.7c2.2,0,4,1.2,5,3.1c0,0,0,0.1,0.1,0.2
	c0.1,0.1,0.1,0.3,0.2,0.5c0,0.1,0.1,0.3,0.1,0.5c0,0.1,0.1,0.2,0.1,0.3c0.1,0.5,0.2,1.1,0.3,1.9c0,0,0.6,4.3-1,10.6
	c-1.8,6.6-2.8,11.8-2.7,17.5V90c0,11.3,9.1,20.4,20.2,20.4c5.3,0,10.2-2,13.8-5.5c3.5-3,36.8-48.9,39.7-53v-0.1
	c1.1-1.5,1.7-3,1.7-4.8C138.2,43,134.9,39.6,130.8,39.6z"/>
<path class="st0" d="M-83.5,78.9"/>
<path class="st1" d="M214-24.1"/>
</svg>
