<?xml version="1.0" encoding="utf-8"?>
<!-- Generator: Adobe Illustrator 27.8.1, SVG Export Plug-In . SVG Version: 6.00 Build 0)  -->
<svg version="1.1" xmlns="http://www.w3.org/2000/svg" xmlns:xlink="http://www.w3.org/1999/xlink" x="0px" y="0px"
	 viewBox="0 0 150 150" style="enable-background:new 0 0 150 150;" xml:space="preserve">
<style type="text/css">
	.st0{fill:#2847E2;}
	.st1{fill:#FFFFFF;}
	.st2{fill:#6D70B4;}
	.st3{clip-path:url(#SVGID_00000172426114466533229320000010944934942135054009_);fill:none;stroke:#FFFFFF;stroke-miterlimit:10;}
</style>
<g id="BG">
	<rect transform="matrix(-1 -1.224647e-16 1.224647e-16 -1 150 150)" class="st0" width="150" height="150"/>
	<path class="st0" d="M-5.3-21.5"/>
</g>
<g id="uuid-2f94c5fe-d020-40cf-9048-8d30614dce83">
	<path class="st1" d="M130,35.8c-2.4,0-4.5,1-5.9,3c-2.9,4.1-31.2,44.1-36.8,49.8c-1.2,1.3-2.6,2.3-4.5,2.3c-2.4,0-4.5-1.7-5.2-3.5
		c0,0-1.7-3.9-0.1-10.4l1.9-7.9c2.5-9.6,0.9-15.7,0.3-17.4c-2.4-8.7-10.2-15-19.6-15c-5.7,0-10.9,2.4-14.5,6.1l-0.1,0.1
		c-2,2-13.7,16.9-13.7,16.9l-19,24.5c-1,1.3-1.8,3-1.8,4.9c0,4.1,3.3,7.4,7.4,7.4c2.1,0,4.1-0.7,5.7-2.7l6.9-9.1l12.9-16.7
		c6.6-8.2,9.8-13.1,11.4-14.5c0,0,0.3-0.3,0.6-0.5c1.1-0.9,2.3-1.7,4-1.7c2.2,0,4,1.2,5,3.1c0,0,0,0.1,0.1,0.2
		c0.1,0.1,0.1,0.3,0.2,0.5c0,0.1,0.1,0.3,0.1,0.5c0,0.1,0.1,0.2,0.1,0.3c0.1,0.5,0.2,1.1,0.3,1.9c0,0,0.6,4.3-1,10.6
		c-1.8,6.6-2.8,11.8-2.7,17.5v0.1c0,11.3,9.1,20.4,20.2,20.4c5.3,0,10.2-2,13.8-5.5c3.5-3,36.8-48.9,39.7-53v-0.1
		c1.1-1.5,1.7-3,1.7-4.8C137.4,39.2,134.1,35.8,130,35.8z"/>
	<path class="st1" d="M-84.5,71.9"/>
	<path class="st2" d="M213-31.1"/>
	<path class="st1" d="M298.3,32c-2.4,0-4.5,1-5.9,3c-2.9,4.1-31.2,44.1-36.8,49.8c-1.2,1.3-2.6,2.3-4.5,2.3c-2.4,0-4.5-1.7-5.2-3.5
		c0,0-1.7-3.9-0.1-10.4l1.9-7.9c2.5-9.6,0.9-15.7,0.3-17.4c-2.4-8.7-10.2-15-19.6-15c-5.7,0-10.9,2.4-14.5,6.1l-0.1,0.1
		c-2,2-13.7,16.9-13.7,16.9l-19,24.5c-1,1.3-1.8,3-1.8,4.9c0,4.1,3.3,7.4,7.4,7.4c2.1,0,4.1-0.7,5.7-2.7l6.9-9.1l12.9-16.7
		c6.6-8.2,9.8-13.1,11.4-14.5c0,0,0.3-0.3,0.6-0.5c1.1-0.9,2.3-1.7,4-1.7c2.2,0,4,1.2,5,3.1c0,0,0,0.1,0.1,0.2
		c0.1,0.1,0.1,0.3,0.2,0.5c0,0.1,0.1,0.3,0.1,0.5c0,0.1,0.1,0.2,0.1,0.3c0.1,0.5,0.2,1.1,0.3,1.9c0,0,0.6,4.3-1,10.6
		c-1.8,6.6-2.8,11.8-2.7,17.5v0.1c0,11.3,9.1,20.4,20.2,20.4c5.3,0,10.2-2,13.8-5.5c3.5-3,36.8-48.9,39.7-53v-0.1
		c1.1-1.5,1.7-3,1.7-4.8C305.7,35.3,302.4,32,298.3,32z"/>
	<g>
		<defs>
			<path id="SVGID_1_" d="M13.3,94.9l8.3-9.7l8.8-11.7l7.5-10.3L47.4,52l4.1-4.1l5.4-2.8l5.1-1.3l4.7,1.3c0,0,1.8,1.8,2.9,2.9
				c0.9,0.9,1.9,3.2,3,4.6c0.4,0.5,0.5,4.1,0.5,4.1l-0.8,9.3l-1.7,9.4l-1.1,10.4l3.4,8.3l7.2,4.1h7.7l5.9-5.9l6.5-7.7l6.5-9.4
				l4.9-7.1l6.2-8l4.6-7.5l4.6-7.5l5.4-5.3l1.6-2.6"/>
		</defs>
		<clipPath id="SVGID_00000102505704252858043090000008074912434551655074_">
			<use xlink:href="#SVGID_1_"  style="overflow:visible;"/>
		</clipPath>
		
			<line style="clip-path:url(#SVGID_00000102505704252858043090000008074912434551655074_);fill:none;stroke:#FFFFFF;stroke-miterlimit:10;" x1="68.5" y1="83" x2="69.2" y2="87.3"/>
	</g>
</g>
</svg>
