<svg xmlns="http://www.w3.org/2000/svg" width="1088" height="687.962" viewBox="0 0 1088 687.962">
  <title>Workflow Automation</title>
  <g id="Group_Workflow" data-name="Group Workflow" transform="translate(-57 -56)">
    <g id="Group_Auto" data-name="Group Auto" transform="translate(57 56)">
      <!-- Background shapes -->
      <path d="M1017.81,560.461c-5.27,45.15-16.22,81.4-31.25,110.31-20,38.52-54.21,54.04-84.77,70.28a193.275,193.275,0,0,1-27.46,11.94c-55.61,19.3-117.85,14.18-166.74,3.99a657.282,657.282,0,0,0-104.09-13.16q-14.97-.675-29.97-.67c-15.42.02-293.07,5.29-360.67-131.57-16.69-33.76-28.13-75-32.24-125.27-11.63-142.12,52.29-235.46,134.74-296.47,155.97-115.41,369.76-110.57,523.43,7.88C941.15,276.621,1036.99,396.031,1017.81,560.461Z" transform="translate(-56 -106.019)" fill="#3f3d56"/>
      <path d="M986.56,670.771c-20,38.52-47.21,64.04-77.77,80.28a193.272,193.272,0,0,1-27.46,11.94c-55.61,19.3-117.85,14.18-166.74,3.99a657.3,657.3,0,0,0-104.09-13.16q-14.97-.675-29.97-.67-23.13.03-46.25,1.72c-100.17,7.36-253.82-6.43-321.42-143.29L382,283.981,444.95,445.6l20.09,51.59,55.37-75.98L549,381.981l130.2,149.27,36.8-81.27L970.78,657.9l14.21,11.59Z" transform="translate(-56 -106.019)" fill="#f2f2f2"/>
      
      <!-- Workflow diagram -->
      <!-- Start node -->
      <circle cx="200" cy="250" r="40" fill="#28a745" stroke="#ffffff" stroke-width="4"/>
      <text x="200" y="255" text-anchor="middle" fill="#ffffff" font-family="Arial" font-size="14" font-weight="bold">START</text>
      
      <!-- Process nodes -->
      <rect x="320" y="210" width="100" height="80" fill="#6c63ff" stroke="#ffffff" stroke-width="3" rx="10"/>
      <text x="370" y="240" text-anchor="middle" fill="#ffffff" font-family="Arial" font-size="12" font-weight="bold">Content</text>
      <text x="370" y="255" text-anchor="middle" fill="#ffffff" font-family="Arial" font-size="12" font-weight="bold">Review</text>
      <text x="370" y="270" text-anchor="middle" fill="#ffffff" font-family="Arial" font-size="12" font-weight="bold">Queue</text>
      
      <polygon points="500,210 580,250 500,290" fill="#ffc107" stroke="#ffffff" stroke-width="3"/>
      <text x="540" y="255" text-anchor="middle" fill="#ffffff" font-family="Arial" font-size="12" font-weight="bold">APPROVE?</text>
      
      <rect x="640" y="150" width="100" height="60" fill="#28a745" stroke="#ffffff" stroke-width="3" rx="10"/>
      <text x="690" y="175" text-anchor="middle" fill="#ffffff" font-family="Arial" font-size="12" font-weight="bold">Publish</text>
      <text x="690" y="190" text-anchor="middle" fill="#ffffff" font-family="Arial" font-size="12" font-weight="bold">Live</text>
      
      <rect x="640" y="300" width="100" height="60" fill="#dc3545" stroke="#ffffff" stroke-width="3" rx="10"/>
      <text x="690" y="325" text-anchor="middle" fill="#ffffff" font-family="Arial" font-size="12" font-weight="bold">Send to</text>
      <text x="690" y="340" text-anchor="middle" fill="#ffffff" font-family="Arial" font-size="12" font-weight="bold">Editor</text>
      
      <rect x="820" y="210" width="100" height="80" fill="#17a2b8" stroke="#ffffff" stroke-width="3" rx="10"/>
      <text x="870" y="235" text-anchor="middle" fill="#ffffff" font-family="Arial" font-size="12" font-weight="bold">Analytics</text>
      <text x="870" y="250" text-anchor="middle" fill="#ffffff" font-family="Arial" font-size="12" font-weight="bold">&amp;</text>
      <text x="870" y="265" text-anchor="middle" fill="#ffffff" font-family="Arial" font-size="12" font-weight="bold">Tracking</text>
      
      <!-- Arrows -->
      <defs>
        <marker id="arrowhead" markerWidth="10" markerHeight="7" refX="9" refY="3.5" orient="auto">
          <polygon points="0 0, 10 3.5, 0 7" fill="#3f3d56"/>
        </marker>
      </defs>
      
      <!-- Arrow connections -->
      <line x1="240" y1="250" x2="320" y2="250" stroke="#3f3d56" stroke-width="3" marker-end="url(#arrowhead)"/>
      <line x1="420" y1="250" x2="500" y2="250" stroke="#3f3d56" stroke-width="3" marker-end="url(#arrowhead)"/>
      <line x1="580" y1="230" x2="640" y2="190" stroke="#3f3d56" stroke-width="3" marker-end="url(#arrowhead)"/>
      <line x1="580" y1="270" x2="640" y2="320" stroke="#3f3d56" stroke-width="3" marker-end="url(#arrowhead)"/>
      <line x1="740" y1="180" x2="820" y2="230" stroke="#3f3d56" stroke-width="3" marker-end="url(#arrowhead)"/>
      
      <!-- Feedback loop -->
      <path d="M 640 330 Q 580 380 420 380 Q 360 380 360 320" stroke="#3f3d56" stroke-width="3" fill="none" marker-end="url(#arrowhead)"/>
      
      <!-- Labels -->
      <text x="600" y="205" text-anchor="middle" fill="#28a745" font-family="Arial" font-size="12" font-weight="bold">YES</text>
      <text x="600" y="285" text-anchor="middle" fill="#dc3545" font-family="Arial" font-size="12" font-weight="bold">NO</text>
      <text x="500" y="400" text-anchor="middle" fill="#6c757d" font-family="Arial" font-size="11">Revision Loop</text>
      
      <!-- Automation indicators -->
      <circle cx="300" cy="180" r="8" fill="#ff6584"/>
      <circle cx="520" cy="180" r="8" fill="#ff6584"/>
      <circle cx="760" cy="120" r="8" fill="#ff6584"/>
      <circle cx="840" cy="160" r="8" fill="#ff6584"/>
      
      <!-- Decorative elements -->
      <circle cx="3" cy="3" r="3" transform="translate(479 98.962)" fill="#f2f2f2"/>
      <circle cx="3" cy="3" r="3" transform="translate(396 201.962)" fill="#f2f2f2"/>
      <circle cx="2" cy="2" r="2" transform="translate(600 220.962)" fill="#f2f2f2"/>
      <circle cx="2" cy="2" r="2" transform="translate(180 265.962)" fill="#f2f2f2"/>
      <circle cx="2" cy="2" r="2" transform="translate(612 96.962)" fill="#f2f2f2"/>
      <circle cx="2" cy="2" r="2" transform="translate(736 192.962)" fill="#f2f2f2"/>
      <circle cx="2" cy="2" r="2" transform="translate(858 344.962)" fill="#f2f2f2"/>
      
      <!-- Base -->
      <ellipse cx="544" cy="30" rx="544" ry="30" transform="translate(0 583.962)" fill="#3f3d56"/>
    </g>
  </g>
</svg>