<svg width="200" height="200" viewBox="0 0 200 200" xmlns="http://www.w3.org/2000/svg">
  <!-- Background -->
  <rect width="200" height="200" rx="12" fill="#F5F7FA"/>

  <!-- Top bar -->
  <rect x="0" y="0" width="200" height="20" fill="#0A5BFF"/>
  <rect x="10" y="6" width="30" height="8" rx="3" fill="white" opacity="0.85"/>
  <circle cx="180" cy="10" r="6" fill="white" opacity="0.9"/>

  <!-- LEFT PANEL (preview) -->
  <rect x="6" y="28" width="115" height="166" rx="6" fill="white" stroke="#E0E5EA"/>

  <!-- Left Preview: Header -->
  <rect x="12" y="36" width="103" height="12" rx="3" fill="#CCE4FF"/>

  <!-- Logo circle -->
  <circle cx="28" cy="60" r="10" fill="#88B8FF"/>
  <circle cx="28" cy="60" r="5" fill="white" opacity="0.8"/>

  <!-- Site title -->
  <rect x="44" y="54" width="60" height="10" rx="3" fill="#7AA2F7" opacity="0.9"/>

  <!-- Section label -->
  <rect x="12" y="78" width="70" height="7" rx="3" fill="#0A5BFF" opacity="0.6"/>

  <!-- Article headline -->
  <rect x="12" y="92" width="90" height="10" rx="3" fill="#4A4D57" opacity="0.4"/>
  <rect x="12" y="106" width="75" height="8" rx="3" fill="#4A4D57" opacity="0.3"/>

  <!-- Featured Image -->
  <rect x="12" y="122" width="103" height="48" rx="6" fill="url(#gradImage)"/>

  <defs>
    <linearGradient id="gradImage" x1="0" y1="0" x2="1" y2="1">
      <stop offset="0%" stop-color="#213E6B"/>
      <stop offset="60%" stop-color="#5078B8"/>
      <stop offset="100%" stop-color="#FFB38A"/>
    </linearGradient>
  </defs>

  <!-- Footer lines in preview -->
  <rect x="12" y="176" width="80" height="6" rx="3" fill="#D8DEE9"/>
  <rect x="12" y="186" width="60" height="6" rx="3" fill="#D8DEE9"/>

  <!-- RIGHT PANEL — expanded -->
  <rect x="125" y="28" width="69" height="166" rx="6" fill="white" stroke="#E0E5EA"/>

  <!-- Filters -->
  <rect x="134" y="38" width="50" height="8" rx="3" fill="#D8DEE9"/>
  <rect x="134" y="54" width="45" height="6" rx="3" fill="#D8DEE9"/>
  <rect x="134" y="66" width="42" height="6" rx="3" fill="#D8DEE9"/>

  <!-- Cards -->
  <rect x="134" y="86" width="55" height="22" rx="4" fill="#F0F2F5" stroke="#E0E5EA"/>
  <rect x="134" y="114" width="55" height="22" rx="4" fill="#F0F2F5" stroke="#E0E5EA"/>
  <rect x="134" y="142" width="55" height="22" rx="4" fill="#F0F2F5" stroke="#E0E5EA"/>
</svg>
