<svg width="200" height="200" viewBox="0 0 200 200" xmlns="http://www.w3.org/2000/svg">

  <!-- Header -->
  <rect x="0" y="0" width="200" height="22" fill="#2847e2"/>

  <!-- Background -->
  <rect x="0" y="22" width="200" height="178" fill="#f5f7fa"/>

  <!-- Left filter panel (narrower) -->
  <rect x="10" y="32" width="48" height="160" rx="4" fill="#ffffff" stroke="#d0d6dd" stroke-width="1"/>

  <!-- Filter title bar -->
  <rect x="10" y="32" width="48" height="12" fill="#e7ecf2"/>

  <!-- Filter blocks -->
  <rect x="14" y="50" width="40" height="9" rx="2" fill="#eef1f5"/>
  <rect x="14" y="63" width="40" height="9" rx="2" fill="#eef1f5"/>
  <rect x="14" y="76" width="40" height="9" rx="2" fill="#eef1f5"/>
  <rect x="14" y="89" width="40" height="9" rx="2" fill="#eef1f5"/>
  <rect x="14" y="102" width="40" height="9" rx="2" fill="#eef1f5"/>
  <rect x="14" y="115" width="40" height="9" rx="2" fill="#eef1f5"/>
  <rect x="14" y="128" width="40" height="9" rx="2" fill="#eef1f5"/>

  <!-- Right results list area (wider) -->
  <rect x="62" y="32" width="128" height="160" rx="4" fill="#ffffff" stroke="#d0d6dd" stroke-width="1"/>

  <!-- Search bar -->
  <rect x="67" y="36" width="118" height="11" rx="3" fill="#eef1f5"/>

  <!-- Result cards -->
  <rect x="67" y="55" width="118" height="24" rx="3" fill="#fafbfc" stroke="#e1e6ec" stroke-width="1"/>
  <rect x="67" y="83" width="118" height="24" rx="3" fill="#fafbfc" stroke="#e1e6ec" stroke-width="1"/>
  <rect x="67" y="111" width="118" height="24" rx="3" fill="#fafbfc" stroke="#e1e6ec" stroke-width="1"/>
  <rect x="67" y="139" width="118" height="24" rx="3" fill="#fafbfc" stroke="#e1e6ec" stroke-width="1"/>
  <rect x="67" y="167" width="118" height="24" rx="3" fill="#fafbfc" stroke="#e1e6ec" stroke-width="1"/>

  <!-- Thumbnail placeholders -->
  <rect x="170" y="60" width="12" height="14" rx="2" fill="#dbe1e7"/>
  <rect x="170" y="88" width="12" height="14" rx="2" fill="#dbe1e7"/>
  <rect x="170" y="116" width="12" height="14" rx="2" fill="#dbe1e7"/>
  <rect x="170" y="144" width="12" height="14" rx="2" fill="#dbe1e7"/>
  <rect x="170" y="172" width="12" height="14" rx="2" fill="#dbe1e7"/>

</svg>
