<svg width="200" height="200" viewBox="0 0 200 200" xmlns="http://www.w3.org/2000/svg">
  <!-- Background -->
  <rect width="200" height="200" rx="12" fill="#F5F7FA"/>

  <!-- Top bar -->
  <rect x="0" y="0" width="200" height="22" fill="#2847e2"/>
  <circle cx="14" cy="11" r="3" fill="white"/>
  <rect x="24" y="6" width="40" height="10" rx="3" fill="white" opacity="0.8"/>

  <!-- Left panel (narrow) -->
  <rect x="10" y="32" width="28" height="156" rx="6" fill="#ECEFF4"/>

  <!-- Box 1 -->
  <rect x="14" y="38" width="20" height="20" rx="4" fill="#D8DEE9"/>
  <!-- Box 2 -->
  <rect x="14" y="66" width="20" height="20" rx="4" fill="#D8DEE9"/>
  <!-- Box 3 -->
  <rect x="14" y="94" width="20" height="20" rx="4" fill="#D8DEE9"/>

  <!-- Box 4: empty, dashed border, + symbol -->
  <rect x="14" y="122" width="20" height="20" rx="4"
        fill="none" stroke="#A0A7B0" stroke-dasharray="4 3" stroke-width="1.5"/>
  <text x="24" y="137" text-anchor="middle" font-size="14" fill="#A0A7B0" font-family="sans-serif">+</text>

  <!-- Main card -->
  <rect x="48" y="32" width="142" height="70" rx="8" fill="white" stroke="#E0E5EA"/>
  <rect x="58" y="42" width="60" height="8" rx="3" fill="#2847e2" opacity="0.8"/>
  <rect x="58" y="56" width="100" height="6" rx="3" fill="#D8DEE9"/>
  <rect x="58" y="68" width="80" height="6" rx="3" fill="#D8DEE9"/>

  <!-- Right list -->
  <rect x="48" y="112" width="142" height="76" rx="8" fill="white" stroke="#E0E5EA"/>
  <rect x="58" y="124" width="90" height="6" rx="3" fill="#D8DEE9"/>
  <rect x="58" y="138" width="70" height="6" rx="3" fill="#D8DEE9"/>
  <rect x="58" y="152" width="90" height="6" rx="3" fill="#D8DEE9"/>
  <rect x="58" y="166" width="50" height="6" rx="3" fill="#D8DEE9"/>
</svg>