<svg xmlns="http://www.w3.org/2000/svg" width="1088" height="687.962" viewBox="0 0 1088 687.962">
  <title>Content Management</title>
  <g id="Group_CMS" data-name="Group CMS" transform="translate(-57 -56)">
    <g id="Group_Content" data-name="Group Content" transform="translate(57 56)">
      <!-- Background shapes -->
      <path d="M1017.81,560.461c-5.27,45.15-16.22,81.4-31.25,110.31-20,38.52-54.21,54.04-84.77,70.28a193.275,193.275,0,0,1-27.46,11.94c-55.61,19.3-117.85,14.18-166.74,3.99a657.282,657.282,0,0,0-104.09-13.16q-14.97-.675-29.97-.67c-15.42.02-293.07,5.29-360.67-131.57-16.69-33.76-28.13-75-32.24-125.27-11.63-142.12,52.29-235.46,134.74-296.47,155.97-115.41,369.76-110.57,523.43,7.88C941.15,276.621,1036.99,396.031,1017.81,560.461Z" transform="translate(-56 -106.019)" fill="#3f3d56"/>
      <path d="M986.56,670.771c-20,38.52-47.21,64.04-77.77,80.28a193.272,193.272,0,0,1-27.46,11.94c-55.61,19.3-117.85,14.18-166.74,3.99a657.3,657.3,0,0,0-104.09-13.16q-14.97-.675-29.97-.67-23.13.03-46.25,1.72c-100.17,7.36-253.82-6.43-321.42-143.29L382,283.981,444.95,445.6l20.09,51.59,55.37-75.98L549,381.981l130.2,149.27,36.8-81.27L970.78,657.9l14.21,11.59Z" transform="translate(-56 -106.019)" fill="#f2f2f2"/>
      
      <!-- Content Management Interface -->
      <rect x="200" y="150" width="688" height="400" rx="20" fill="#ffffff" stroke="#6c63ff" stroke-width="3"/>
      <rect x="220" y="170" width="648" height="60" fill="#6c63ff" rx="10"/>
      <text x="544" y="210" text-anchor="middle" fill="#ffffff" font-family="Arial" font-size="24" font-weight="bold">NEON CMS Dashboard</text>
      
      <!-- Content blocks -->
      <rect x="240" y="260" width="180" height="120" fill="#f8f9fa" stroke="#e9ecef" stroke-width="2" rx="8"/>
      <rect x="450" y="260" width="180" height="120" fill="#f8f9fa" stroke="#e9ecef" stroke-width="2" rx="8"/>
      <rect x="660" y="260" width="180" height="120" fill="#f8f9fa" stroke="#e9ecef" stroke-width="2" rx="8"/>
      
      <!-- Article icons -->
      <rect x="260" y="280" width="140" height="8" fill="#6c63ff" rx="4"/>
      <rect x="260" y="300" width="100" height="6" fill="#dee2e6" rx="3"/>
      <rect x="260" y="315" width="120" height="6" fill="#dee2e6" rx="3"/>
      <rect x="260" y="330" width="80" height="6" fill="#dee2e6" rx="3"/>
      <rect x="260" y="350" width="60" height="20" fill="#28a745" rx="10"/>
      
      <rect x="470" y="280" width="140" height="8" fill="#6c63ff" rx="4"/>
      <rect x="470" y="300" width="110" height="6" fill="#dee2e6" rx="3"/>
      <rect x="470" y="315" width="130" height="6" fill="#dee2e6" rx="3"/>
      <rect x="470" y="330" width="90" height="6" fill="#dee2e6" rx="3"/>
      <rect x="470" y="350" width="60" height="20" fill="#dc3545" rx="10"/>
      
      <rect x="680" y="280" width="140" height="8" fill="#6c63ff" rx="4"/>
      <rect x="680" y="300" width="95" height="6" fill="#dee2e6" rx="3"/>
      <rect x="680" y="315" width="115" height="6" fill="#dee2e6" rx="3"/>
      <rect x="680" y="330" width="85" height="6" fill="#dee2e6" rx="3"/>
      <rect x="680" y="350" width="60" height="20" fill="#ffc107" rx="10"/>
      
      <!-- Bottom section -->
      <rect x="240" y="400" width="608" height="120" fill="#f8f9fa" stroke="#e9ecef" stroke-width="2" rx="8"/>
      <circle cx="280" cy="440" r="15" fill="#6c63ff"/>
      <rect x="310" y="430" width="200" height="8" fill="#6c63ff" rx="4"/>
      <rect x="310" y="450" width="150" height="6" fill="#dee2e6" rx="3"/>
      
      <circle cx="280" cy="480" r="15" fill="#28a745"/>
      <rect x="310" y="470" width="180" height="8" fill="#28a745" rx="4"/>
      <rect x="310" y="490" width="160" height="6" fill="#dee2e6" rx="3"/>
      
      <!-- Decorative elements -->
      <circle cx="3" cy="3" r="3" transform="translate(479 98.962)" fill="#f2f2f2"/>
      <circle cx="3" cy="3" r="3" transform="translate(396 201.962)" fill="#f2f2f2"/>
      <circle cx="2" cy="2" r="2" transform="translate(600 220.962)" fill="#f2f2f2"/>
      <circle cx="2" cy="2" r="2" transform="translate(180 265.962)" fill="#f2f2f2"/>
      <circle cx="2" cy="2" r="2" transform="translate(612 96.962)" fill="#f2f2f2"/>
      <circle cx="2" cy="2" r="2" transform="translate(736 192.962)" fill="#f2f2f2"/>
      <circle cx="2" cy="2" r="2" transform="translate(858 344.962)" fill="#f2f2f2"/>
      
      <!-- Base -->
      <ellipse cx="544" cy="30" rx="544" ry="30" transform="translate(0 583.962)" fill="#3f3d56"/>
    </g>
  </g>
</svg>